<svg xmlns="http://www.w3.org/2000/svg" width="256" height="315" viewBox="0 0 256 315"><path fill="#FFFFFF" d="M213.803 167.03c.442 47.58 41.74 63.413 42.147 63.615-.35 1.03-6.599 22.563-21.757 44.716-13.103 19.154-26.705 38.235-48.13 38.602-21.05.375-27.812-12.415-51.799-12.415s-31.522 12.039-51.799 12.827c-20.935.79-36.464-20.592-49.699-39.716C5.81 240.242-17.072 148.825 6.574 107.972c11.738-20.26 32.558-33.081 55.193-33.417 17.175-.337 33.368 11.434 43.896 11.434 10.525 0 29.87-14.179 50.625-12.038 8.688.359 33.102 3.469 48.745 26.295-1.262.777-29.122 16.96-28.847 50.487zM155.245 44.62c9.32-11.32 15.563-27.033 13.856-42.62-13.385.539-29.563 8.918-39.158 20.1-8.598 9.893-16.115 25.912-14.116 41.21 14.93 1.173 30.088-7.37 39.418-18.69z"/></svg>
